# xmcd CD database file
#
# Track frame offsets:
#	150
#	12330
#	26719
#	37868
#	46737
#	55813
#	68978
#	77820
#	92289
#	99780
#	114239
#	124961
#	141141
#	153276
#	167353
#	182855
#	194111
#	211170
#	219856
#	229118
#	239216
#	258450
#	269719
#	281402
#	294468
#	304719
#	313988
#	325707
#	336142
#
# Disc length: 4609 seconds
#
# Revision: 0
# Processed by: cddbd v1.5.1PL0 Copyright (c) Steve Scherf et al.
# Submitted via: CDex 1.51
#
DISCID=9d11ff1d
DTITLE=Chas McDevitt with Shirley Douglas - freight train TAKES YA BACK!
DYEAR=2004
DGENRE=Country
TTITLE0=Bloodshot Eyes
TTITLE1=Thirty Days
TTITLE2=Peggy Sue
TTITLE3=La Bamba
TTITLE4=(What A)Crazy World We're Living In
TTITLE5=Freight Train
TTITLE6=Walk Right In
TTITLE7=Cottonfields
TTITLE8=San Francisco Bay Blues
TTITLE9=Rock Island Line
TTITLE10=Tom Booley
TTITLE11=Wabash Cannonball
TTITLE12=Rose Garden
TTITLE13=Everything I Own
TTITLE14=The Firs Time Ever I Saw Your Face
TTITLE15=Kansas City
TTITLE16=I Could Say
TTITLE17=La Bamba
TTITLE18=Walk Right In
TTITLE19=Mummy Out The Light
TTITLE20=She'll Be There
TTITLE21=Snowbird
TTITLE22=Try  To Remember
TTITLE23=Freight Train
TTITLE24=Don't Blame Me
TTITLE25=Don't Believe Them
TTITLE26=When The Good Times Come
TTITLE27=Can it Be Love
TTITLE28=One Love
EXTD=YEAR: 2004
EXTT0=
EXTT1=
EXTT2=
EXTT3=
EXTT4=
EXTT5=
EXTT6=
EXTT7=
EXTT8=
EXTT9=
EXTT10=
EXTT11=
EXTT12=
EXTT13=
EXTT14=
EXTT15=
EXTT16=
EXTT17=
EXTT18=
EXTT19=
EXTT20=
EXTT21=
EXTT22=
EXTT23=
EXTT24=
EXTT25=
EXTT26=
EXTT27=
EXTT28=
PLAYORDER=
